<?xml version="1.0" encoding="UTF-8" standalone="no"?>
<!-- Created with Inkscape (http://www.inkscape.org/) -->
<svg id="svg2" xmlns:rdf="http://www.w3.org/1999/02/22-rdf-syntax-ns#" xmlns="http://www.w3.org/2000/svg" xmlns:osb="http://www.openswatchbook.org/uri/2009/osb" viewBox="0 0 1632.1 355.52" version="1.1" xmlns:cc="http://creativecommons.org/ns#" xmlns:dc="http://purl.org/dc/elements/1.1/">
 <metadata id="metadata7">
  <rdf:RDF>
   <cc:Work rdf:about="">
    <dc:format>image/svg+xml</dc:format>
    <dc:type rdf:resource="http://purl.org/dc/dcmitype/StillImage"/>
    <dc:title/>
   </cc:Work>
  </rdf:RDF>
 </metadata>
 <g id="layer1" transform="translate(-127.15 -235.23)">
  <path id="path2985" fill="#e0ded5" d="m419.86 410.83c-73.03 1.0231-147.33 7.0688-216.3 32.824-21.016 8.3719-44.042 18.951-54.958 39.999-5.7631 13.731 2.4149 28.621 13.242 37.146 21.307 17.448 48.101 26.281 74.126 33.91 58.479 15.891 119.72 21.182 180.3 22.059 65.359 0.32243 130.8-5.2854 194.18-22.03 25.979-7.3833 52.677-16.792 73.956-33.776 10.342-8.5411 19.386-23.078 13.286-36.643-8.3323-19.162-28.603-29.068-46.541-37.174-51.443-21.763-107.28-29.428-162.53-33.928-22.851-1.6838-45.815-2.4733-68.771-2.3867zm5.4219 25.316c61.019 0.83675 122.81 4.5067 181.72 21.525 18.18 5.7328 38.274 11.763 50.575 27.313 4.7946 7.1666 2.7191 17.232-4.1035 22.355-15.738 14.853-37.636 20.02-57.815 25.863-64.734 16.255-132.02 19.18-198.49 17.883-57.775-1.7757-116.36-6.8209-171.41-25.478-14.635-5.2557-30.903-11.972-38.775-26.262-3.97-11.016 5.9123-21.298 14.953-26.057 30.036-17.491 65.039-23.153 98.844-28.724 41.196-6.0857 82.88-8.3998 124.5-8.418z"/>
  <flowRoot id="flowRoot3117" font-size="40px" xml:space="preserve" style="word-spacing:0px;letter-spacing:0px" line-height="125%" font-family="Sans" fill="#000000"><flowRegion id="flowRegion3119"><rect id="rect3121" y="106.65" width="480" x="-148.57" height="97.143"/></flowRegion><flowPara id="flowPara3123"/></flowRoot>
  <path id="rect5724-0-7" d="m525.11 252.16-69.809 188.88 170.07 62.856 58.961-159.53-24.502-42.418-134.72-49.791z" fill="#e0ded5"/>
  <path id="rect3016-5-1-8" fill="#333" d="m525.55 245.23-75.04 203.04 177.63 65.65 60.2-162.9-34.47-58.36-128.32-47.43zm4.6222 12.103 116.75 43.15 31.345 53.108-54.777 148.21-161.6-59.725 68.279-184.74z"/>
  <g id="flowRoot3015" transform="matrix(.97552 .37151 -.37151 .97552 399.89 -508.97)">
   <g fill="#77858d">
    <path id="path3630" d="m396.12 704.18h6.6406v-18.848l-6.8164 1.4062v-5.1172l6.7774-1.4062h7.1484v23.965h6.6406v5.1953h-20.391v-5.1953z"/>
    <path id="path3632" d="m465.45 694.77q0-5.4688-1.0352-7.6953-1.0156-2.2461-3.4375-2.2461t-3.457 2.2461q-1.0352 2.2266-1.0352 7.6953 0 5.5273 1.0352 7.793 1.0352 2.2656 3.457 2.2656 2.4023 0 3.4375-2.2656t1.0352-7.793zm7.5195 0.0586q0 7.2461-3.125 11.191-3.125 3.9258-8.8672 3.9258-5.7617 0-8.8867-3.9258-3.125-3.9453-3.125-11.191 0-7.2656 3.125-11.191 3.125-3.9453 8.8867-3.9453 5.7422 0 8.8672 3.9453 3.125 3.9258 3.125 11.191z"/>
    <path id="path3634" d="m507.37 704.18h6.6406v-18.848l-6.8164 1.4062v-5.1172l6.7774-1.4062h7.1484v23.965h6.6406v5.1953h-20.391v-5.1953z"/>
    <path id="path3636" d="m409.83 744.77q0-5.4688-1.0352-7.6953-1.0156-2.2461-3.4375-2.2461t-3.457 2.2461q-1.0352 2.2266-1.0352 7.6953 0 5.5273 1.0352 7.793 1.0352 2.2656 3.457 2.2656 2.4023 0 3.4375-2.2656t1.0352-7.793zm7.5195 0.0586q0 7.2461-3.125 11.191-3.125 3.9258-8.8672 3.9258-5.7617 0-8.8867-3.9258-3.125-3.9453-3.125-11.191 0-7.2656 3.125-11.191 3.125-3.9453 8.8867-3.9453 5.7422 0 8.8672 3.9453 3.125 3.9258 3.125 11.191z"/>
    <path id="path3638" d="m451.74 754.18h6.6406v-18.848l-6.8164 1.4062v-5.1172l6.7774-1.4062h7.1484v23.965h6.6406v5.1953h-20.391v-5.1953z"/>
    <path id="path3640" d="m507.37 754.18h6.6406v-18.848l-6.8164 1.4062v-5.1172l6.7774-1.4062h7.1484v23.965h6.6406v5.1953h-20.391v-5.1953z"/>
   </g>
   <path id="path3642" fill="#808080" d="m396.12 804.18h6.6406v-18.848l-6.8164 1.4062v-5.1172l6.7774-1.4062h7.1484v23.965h6.6406v5.1953h-20.391v-5.1953z"/>
   <path id="path3644" fill="#77858d" d="m465.45 794.77q0-5.4688-1.0352-7.6953-1.0156-2.2461-3.4375-2.2461t-3.457 2.2461q-1.0352 2.2266-1.0352 7.6953 0 5.5273 1.0352 7.793 1.0352 2.2656 3.457 2.2656 2.4023 0 3.4375-2.2656t1.0352-7.793zm7.5195 0.0586q0 7.2461-3.125 11.191-3.125 3.9258-8.8672 3.9258-5.7617 0-8.8867-3.9258-3.125-3.9453-3.125-11.191 0-7.2656 3.125-11.191 3.125-3.9453 8.8867-3.9453 5.7422 0 8.8672 3.9453 3.125 3.9258 3.125 11.191z"/>
   <path id="path3646" fill="#77858d" d="m521.08 794.77q0-5.4688-1.0352-7.6953-1.0156-2.2461-3.4375-2.2461t-3.457 2.2461q-1.0352 2.2266-1.0352 7.6953 0 5.5273 1.0352 7.793 1.0352 2.2656 3.457 2.2656 2.4023 0 3.4375-2.2656t1.0352-7.793zm7.5195 0.0586q0 7.2461-3.125 11.191-3.125 3.9258-8.8672 3.9258-5.7617 0-8.8867-3.9258-3.125-3.9453-3.125-11.191 0-7.2656 3.125-11.191 3.125-3.9453 8.8867-3.9453 5.7422 0 8.8672 3.9453 3.125 3.9258 3.125 11.191z"/>
  </g>
  <path id="path3464" d="m329.31 257.59-0.86701 201.37 181.31 0.78066 0.73228-170.07-37.552-31.455-143.62-0.61839z" fill="#e0ded5"/>
  <path id="path3466" d="m327.35 250.94-0.93196 216.45 189.37 0.81537 0.74771-173.66-52.378-43.018-136.81-0.58906zm8.4892 9.7864 124.47 0.53591 47.644 39.154-0.68032 158.01-172.28-0.74177 0.84801-196.95z" fill="#333"/>
  <path id="rect5724-0" d="m141.27 310.35 67.934 189.56 170.68-61.167-57.377-160.11-46.035-16.744-135.21 48.453z" fill="#e0ded5"/>
  <g id="flowRoot3109-9" transform="matrix(1.0781 0 0 1.745 128.84 23.788)" fill="#77858d">
   <path id="path3623" d="m251.24 186.02-32.949 11.348 32.949 11.279v8.5449l-43.818-15.825v-8.0664l43.818-15.825v8.5449z"/>
   <path id="path3625" d="m276.63 168.25h7.5879l-18.013 57.524h-7.5537l17.979-57.524z"/>
   <path id="path3627" d="m291.64 186.02v-8.5449l43.818 15.825v8.0664l-43.818 15.825v-8.5449l32.983-11.279-32.983-11.348z"/>
  </g>
  <path id="rect3016-5-1" fill="#333" d="m137.15 304.77 73.023 203.76 178.27-63.887-58.587-163.48-63.917-22.551-128.79 46.155zm11.32 6.3 117.17-41.991 58.149 20.535 53.305 148.74-162.18 58.121-66.444-185.41z"/>
  <g id="g5819" fill="#77858d" transform="matrix(.94138 -.33736 .33736 .94138 -383.32 378.89)">
   <rect id="rect3044" height="11.429" width="131.43" y="155.22" x="541.43"/>
   <rect id="rect3044-4" height="11.429" width="131.43" y="283.79" x="541.43"/>
   <rect id="rect3044-42" height="11.429" width="131.43" y="198.08" x="541.43"/>
   <rect id="rect3044-42-7" height="11.429" width="131.43" y="240.93" x="541.43"/>
  </g>
  <g id="flowRoot5906" transform="matrix(1.9726 0 0 1.9726 676.83 -959.88)">
   <g fill="#8e0d13">
    <path id="path3604" d="m88.916 699.02q0-10.01-4.95-15.4t-13.2-5.39q-4.62 0-7.26 0.33-2.53 0.33-4.07 0.77v36.08q1.87 1.54 5.39 2.97t7.7 1.43q4.4 0 7.48-1.54 3.19-1.65 5.17-4.4 1.98-2.86 2.86-6.6 0.88-3.85 0.88-8.25zm10.67 0q0 6.49-1.76 11.99-1.65 5.5-4.95 9.46t-8.14 6.16q-4.73 2.2-10.89 2.2-4.95 0-8.8-1.32-3.74-1.32-5.61-2.53v22.88h-10.23v-75.79q3.63-0.88 9.02-1.87 5.5-1.1 12.65-1.1 6.6 0 11.88 2.09t9.02 5.94 5.72 9.46q2.09 5.5 2.09 12.43z"/>
    <path id="path3606" d="m133.45 720.14q3.63 0 6.38-0.11 2.86-0.22 4.73-0.66v-17.05q-1.1-0.55-3.63-0.88-2.42-0.44-5.94-0.44-2.31 0-4.95 0.33-2.53 0.33-4.73 1.43-2.09 0.99-3.52 2.86-1.43 1.76-1.43 4.73 0 5.5 3.52 7.7 3.52 2.09 9.57 2.09zm-0.88-51.26q6.16 0 10.34 1.65 4.29 1.54 6.82 4.51 2.64 2.86 3.74 6.93 1.1 3.96 1.1 8.8v35.75q-1.32 0.22-3.74 0.66-2.31 0.33-5.28 0.66t-6.49 0.55q-3.41 0.33-6.82 0.33-4.84 0-8.91-0.99t-7.04-3.08q-2.97-2.2-4.62-5.72t-1.65-8.47q0-4.73 1.87-8.14 1.98-3.41 5.28-5.5t7.7-3.08 9.24-0.99q1.54 0 3.19 0.22 1.65 0.11 3.08 0.44 1.54 0.22 2.64 0.44t1.54 0.33v-2.86q0-2.53-0.55-4.95-0.55-2.53-1.98-4.4-1.43-1.98-3.96-3.08-2.42-1.21-6.38-1.21-5.06 0-8.91 0.77-3.74 0.66-5.61 1.43l-1.21-8.47q1.98-0.88 6.6-1.65 4.62-0.88 10.01-0.88z"/>
    <path id="path3608" d="m211.16 699.02q0-10.01-4.95-15.4t-13.2-5.39q-4.62 0-7.26 0.33-2.53 0.33-4.07 0.77v36.08q1.87 1.54 5.39 2.97t7.7 1.43q4.4 0 7.48-1.54 3.19-1.65 5.17-4.4 1.98-2.86 2.86-6.6 0.88-3.85 0.88-8.25zm10.67 0q0 6.49-1.76 11.99-1.65 5.5-4.95 9.46t-8.14 6.16q-4.73 2.2-10.89 2.2-4.95 0-8.8-1.32-3.74-1.32-5.61-2.53v22.88h-10.23v-75.79q3.63-0.88 9.02-1.87 5.5-1.1 12.65-1.1 6.6 0 11.88 2.09t9.02 5.94 5.72 9.46q2.09 5.5 2.09 12.43z"/>
    <path id="path3610" d="m233.15 699.02q0-7.59 2.2-13.2 2.2-5.72 5.83-9.46t8.36-5.61 9.68-1.87q11.55 0 17.71 7.26 6.16 7.15 6.16 21.89 0 0.66 0 1.76 0 0.99-0.11 1.87h-39.16q0.66 8.91 5.17 13.53t14.08 4.62q5.39 0 9.02-0.88 3.74-0.99 5.61-1.87l1.43 8.58q-1.87 0.99-6.6 2.09-4.62 1.1-10.56 1.1-7.48 0-12.98-2.2-5.39-2.31-8.91-6.27t-5.28-9.35q-1.65-5.5-1.65-11.99zm39.27-5.61q0.11-6.93-3.52-11.33-3.52-4.51-9.79-4.51-3.52 0-6.27 1.43-2.64 1.32-4.51 3.52t-2.97 5.06q-0.99 2.86-1.32 5.83h28.38z"/>
    <path id="path3612" d="m318.9 669.1q1.32 0 2.97 0.22 1.76 0.11 3.41 0.44 1.65 0.22 2.97 0.55 1.43 0.22 2.09 0.44l-1.76 8.91q-1.21-0.44-4.07-0.99-2.75-0.66-7.15-0.66-2.86 0-5.72 0.66-2.75 0.55-3.63 0.77v48.07h-10.23v-54.78q3.63-1.32 9.02-2.42 5.39-1.21 12.1-1.21z"/>
   </g>
   <g fill="#e0ded5">
    <path id="path3614" d="m352.42 721.57q0 2.97-1.98 5.17t-5.39 2.2-5.39-2.2-1.98-5.17 1.98-5.17 5.39-2.2 5.39 2.2 1.98 5.17z"/>
    <path id="path3616" d="m367.39 727.51v-83.6l10.23-1.76v29.26q2.86-1.1 6.05-1.65 3.3-0.66 6.49-0.66 6.82 0 11.33 1.98 4.51 1.87 7.15 5.39 2.75 3.41 3.85 8.25t1.1 10.67v32.12h-10.23v-29.92q0-5.28-0.77-9.02-0.66-3.74-2.31-6.05t-4.4-3.3q-2.75-1.1-6.82-1.1-1.65 0-3.41 0.22t-3.41 0.55q-1.54 0.22-2.86 0.55-1.21 0.33-1.76 0.55v47.52h-10.23z"/>
    <path id="path3618" d="m475.66 725.86q-3.52 0.88-9.35 1.87-5.72 0.99-13.31 0.99-6.6 0-11.11-1.87-4.51-1.98-7.26-5.5t-3.96-8.25q-1.21-4.84-1.21-10.67v-32.12h10.23v29.92q0 10.45 3.3 14.96t11.11 4.51q1.65 0 3.41-0.11t3.3-0.22q1.54-0.22 2.75-0.33 1.32-0.22 1.87-0.44v-48.29h10.23v55.55z"/>
    <path id="path3620" d="m503.52 672.84q1.87-1.21 5.61-2.53 3.85-1.32 8.8-1.32 6.16 0 10.89 2.2 4.84 2.2 8.14 6.16t4.95 9.46q1.76 5.5 1.76 12.1 0 6.93-2.09 12.54-1.98 5.5-5.72 9.35t-9.02 5.94-11.88 2.09q-7.15 0-12.65-0.99t-9.02-1.98v-81.95l10.23-1.76v30.69zm0 45.76q1.54 0.44 4.29 0.88 2.86 0.33 7.04 0.33 8.25 0 13.2-5.39 4.95-5.5 4.95-15.51 0-4.4-0.88-8.25t-2.86-6.6q-1.98-2.86-5.17-4.4-3.08-1.65-7.48-1.65-4.18 0-7.7 1.43t-5.39 2.97v36.19z"/>
   </g>
  </g>
 </g>
</svg>
