<?xml version="1.0" encoding="UTF-8" standalone="no"?>
<!-- Created with Inkscape (http://www.inkscape.org/) -->
<svg id="svg2" xmlns:rdf="http://www.w3.org/1999/02/22-rdf-syntax-ns#" xmlns="http://www.w3.org/2000/svg" xmlns:osb="http://www.openswatchbook.org/uri/2009/osb" viewBox="0 0 64 64" version="1.1" xmlns:cc="http://creativecommons.org/ns#" xmlns:dc="http://purl.org/dc/elements/1.1/">
 <metadata id="metadata7">
  <rdf:RDF>
   <cc:Work rdf:about="">
    <dc:format>image/svg+xml</dc:format>
    <dc:type rdf:resource="http://purl.org/dc/dcmitype/StillImage"/>
    <dc:title/>
   </cc:Work>
  </rdf:RDF>
 </metadata>
 <g id="layer1" transform="translate(-137.15 -525.78)">
  <path id="path2985" fill="#1a1a1a" d="m168.75 557.52c-8.4584 0.11874-17.064 0.8204-25.052 3.8094-2.4341 0.97162-5.101 2.1994-6.3653 4.6422-0.66749 1.5936 0.2797 3.3217 1.5337 4.3111 2.4678 2.025 5.5711 3.0502 8.5853 3.9355 6.7731 1.8443 13.866 2.4583 20.883 2.5601 7.5699 0.0374 15.15-0.61342 22.491-2.5568 3.0089-0.85689 6.1011-1.9488 8.5656-3.9199 1.1978-0.99126 2.2454-2.6784 1.5388-4.2528-0.96505-2.224-3.3128-3.3736-5.3904-4.3143-5.9581-2.5258-12.425-3.4153-18.824-3.9376-2.6466-0.19542-5.3064-0.28705-7.9652-0.277zm0.62797 2.9382c7.0672 0.0971 14.224 0.52303 21.047 2.4981 2.1056 0.66534 4.433 1.3652 5.8576 3.1699 0.55531 0.83175 0.31493 2-0.47528 2.5945-1.8228 1.7238-4.359 2.3235-6.6961 3.0016-7.4976 1.8865-15.29 2.226-22.989 2.0754-6.6915-0.20608-13.477-0.79162-19.853-2.9569-1.6951-0.60997-3.5792-1.3895-4.491-3.0479-0.45981-1.2784 0.68476-2.4718 1.7319-3.0242 3.4788-2.03 7.5328-2.687 11.448-3.3337 4.7713-0.7063 9.5992-0.97487 14.42-0.97698z"/>
  <flowRoot id="flowRoot3117" font-size="40.804px" xml:space="preserve" style="word-spacing:0px;letter-spacing:0px" line-height="125%" font-family="Sans" fill="#000000"><flowRegion id="flowRegion3119"><rect id="rect3121" y="97.198" width="489.65" x="-154.31" height="99.095"/></flowRegion><flowPara id="flowPara3123"/></flowRoot>
  <path id="rect5724-0-7" d="m182.17 539.1-8.1019 21.921 19.738 7.295 6.8429-18.515-2.8437-4.9229-15.635-5.7786z" fill="#fff"/>
  <path id="rect3016-5-1-8" d="m182.22 538.3-8.7089 23.563 20.616 7.6194 6.9872-18.905-4.0003-6.7732-14.894-5.5046zm0.53645 1.4046 13.55 5.0079 3.6379 6.1636-6.3573 17.201-18.755-6.9316 7.9243-21.441z"/>
  <g id="flowRoot3015" fill="#4d4d4d" transform="matrix(.11322 .043117 -.043117 .11322 167.64 450.77)">
   <path id="path3630" d="m396.12 704.18h6.6406v-18.848l-6.8164 1.4062v-5.1172l6.7774-1.4062h7.1484v23.965h6.6406v5.1953h-20.391v-5.1953z"/>
   <path id="path3632" d="m465.45 694.77q0-5.4688-1.0352-7.6953-1.0156-2.2461-3.4375-2.2461t-3.457 2.2461q-1.0352 2.2266-1.0352 7.6953 0 5.5273 1.0352 7.793 1.0352 2.2656 3.457 2.2656 2.4023 0 3.4375-2.2656t1.0352-7.793zm7.5195 0.0586q0 7.2461-3.125 11.191-3.125 3.9258-8.8672 3.9258-5.7617 0-8.8867-3.9258-3.125-3.9453-3.125-11.191 0-7.2656 3.125-11.191 3.125-3.9453 8.8867-3.9453 5.7422 0 8.8672 3.9453 3.125 3.9258 3.125 11.191z"/>
   <path id="path3634" d="m507.37 704.18h6.6406v-18.848l-6.8164 1.4062v-5.1172l6.7774-1.4062h7.1484v23.965h6.6406v5.1953h-20.391v-5.1953z"/>
   <path id="path3636" d="m409.83 744.77q0-5.4688-1.0352-7.6953-1.0156-2.2461-3.4375-2.2461t-3.457 2.2461q-1.0352 2.2266-1.0352 7.6953 0 5.5273 1.0352 7.793 1.0352 2.2656 3.457 2.2656 2.4023 0 3.4375-2.2656t1.0352-7.793zm7.5195 0.0586q0 7.2461-3.125 11.191-3.125 3.9258-8.8672 3.9258-5.7617 0-8.8867-3.9258-3.125-3.9453-3.125-11.191 0-7.2656 3.125-11.191 3.125-3.9453 8.8867-3.9453 5.7422 0 8.8672 3.9453 3.125 3.9258 3.125 11.191z"/>
   <path id="path3638" d="m451.74 754.18h6.6406v-18.848l-6.8164 1.4062v-5.1172l6.7774-1.4062h7.1484v23.965h6.6406v5.1953h-20.391v-5.1953z"/>
   <path id="path3640" d="m507.37 754.18h6.6406v-18.848l-6.8164 1.4062v-5.1172l6.7774-1.4062h7.1484v23.965h6.6406v5.1953h-20.391v-5.1953z"/>
   <path id="path3642" d="m396.12 804.18h6.6406v-18.848l-6.8164 1.4062v-5.1172l6.7774-1.4062h7.1484v23.965h6.6406v5.1953h-20.391v-5.1953z"/>
   <path id="path3644" d="m465.45 794.77q0-5.4688-1.0352-7.6953-1.0156-2.2461-3.4375-2.2461t-3.457 2.2461q-1.0352 2.2266-1.0352 7.6953 0 5.5273 1.0352 7.793 1.0352 2.2656 3.457 2.2656 2.4023 0 3.4375-2.2656t1.0352-7.793zm7.5195 0.0586q0 7.2461-3.125 11.191-3.125 3.9258-8.8672 3.9258-5.7617 0-8.8867-3.9258-3.125-3.9453-3.125-11.191 0-7.2656 3.125-11.191 3.125-3.9453 8.8867-3.9453 5.7422 0 8.8672 3.9453 3.125 3.9258 3.125 11.191z"/>
   <path id="path3646" d="m521.08 794.77q0-5.4688-1.0352-7.6953-1.0156-2.2461-3.4375-2.2461t-3.457 2.2461q-1.0352 2.2266-1.0352 7.6953 0 5.5273 1.0352 7.793 1.0352 2.2656 3.457 2.2656 2.4023 0 3.4375-2.2656t1.0352-7.793zm7.5195 0.0586q0 7.2461-3.125 11.191-3.125 3.9258-8.8672 3.9258-5.7617 0-8.8867-3.9258-3.125-3.9453-3.125-11.191 0-7.2656 3.125-11.191 3.125-3.9453 8.8867-3.9453 5.7422 0 8.8672 3.9453 3.125 3.9258 3.125 11.191z"/>
  </g>
  <path id="path3464" d="m159.45 539.73-0.10058 23.37 21.043 0.0906 0.085-19.739-4.3583-3.6506-16.669-0.0718z" fill="#fff"/>
  <path id="path3466" d="m159.22 538.96-0.10816 25.121 21.978 0.0947 0.0868-20.155-6.0789-4.9926-15.878-0.0683zm0.98523 1.1358 14.445 0.0622 5.5295 4.5441-0.0789 18.338-19.994-0.0861 0.0984-22.858z"/>
  <g id="flowRoot3109-9" transform="matrix(.12512 0 0 .20252 136.18 512.6)" fill="#4d4d4d">
   <path id="path3623" d="m251.24 186.02-32.949 11.348 32.949 11.279v8.5449l-43.818-15.825v-8.0664l43.818-15.825v8.5449z"/>
   <path id="path3625" d="m276.63 168.25h7.5879l-18.013 57.524h-7.5537l17.979-57.524z"/>
   <path id="path3627" d="m291.64 186.02v-8.5449l43.818 15.825v8.0664l-43.818 15.825v-8.5449l32.983-11.279-32.983-11.348z"/>
  </g>
  <path id="rect5724-0" d="m137.63 545.86 7.8843 22 19.809-7.099-6.6591-18.582-5.3427-1.9433-15.692 5.6234z" fill="#fff"/>
  <g id="g5819" fill="#4d4d4d" transform="matrix(.10925 -.039153 .039153 .10925 76.743 553.81)">
   <rect id="rect3044" height="11.429" width="131.43" y="155.22" x="541.43"/>
   <rect id="rect3044-4" height="11.429" width="131.43" y="283.79" x="541.43"/>
   <rect id="rect3044-42" height="11.429" width="131.43" y="198.08" x="541.43"/>
   <rect id="rect3044-42-7" height="11.429" width="131.43" y="240.93" x="541.43"/>
  </g>
  <path id="rect3016-5-1" d="m137.15 545.21 8.4749 23.649 20.69-7.4147-6.7994-18.973-7.4181-2.6172-14.947 5.3566zm1.3138 0.73118 13.599-4.8734 6.7487 2.3832 6.1865 17.263-18.822 6.7454-7.7114-21.518z"/>
 </g>
</svg>
